<svg xmlns="http://www.w3.org/2000/svg" viewBox="0 0 267.96 386.79"><defs><style>.cls-1,.cls-2{fill:none;}.cls-2{stroke:#f7c60a;stroke-width:15px;}.cls-3{fill:#2328ab;}.cls-4{fill:#f83754;}</style></defs><title>Asset 1</title><g id="Layer_2" data-name="Layer 2"><g id="Layer_1-2" data-name="Layer 1"><g id="Rectangle_3" data-name="Rectangle 3"><path class="cls-1" d="M236.36,256.77h0a30.12,30.12,0,0,1,30.12,30.13v68.29a30.11,30.11,0,0,1-30.12,30.12h0a30.12,30.12,0,0,1-30.13-30.12V286.9A30.13,30.13,0,0,1,236.36,256.77Z"/><path class="cls-2" d="M236.36,262.79h0a24.1,24.1,0,0,1,24.1,24.11v68.29a24.1,24.1,0,0,1-24.1,24.1h0a24.1,24.1,0,0,1-24.11-24.1V286.9A24.1,24.1,0,0,1,236.36,262.79Z"/></g><path id="Rectangle_4" data-name="Rectangle 4" class="cls-3" d="M236.36.47h0A30.12,30.12,0,0,1,266.48,30.6V198.52a30.12,30.12,0,0,1-30.12,30.13h0a30.13,30.13,0,0,1-30.13-30.13V30.6A30.13,30.13,0,0,1,236.36.47Z"/><path id="Rectangle_1" data-name="Rectangle 1" class="cls-3" d="M31.6,89.85h0A30.13,30.13,0,0,1,61.73,120V356.19A30.12,30.12,0,0,1,31.6,386.31h0A30.12,30.12,0,0,1,1.47,356.19V120A30.13,30.13,0,0,1,31.6,89.85Z"/><g id="Rectangle_5" data-name="Rectangle 5"><path class="cls-1" d="M31.6,1.47h0A30.13,30.13,0,0,1,61.73,31.6h0A30.13,30.13,0,0,1,31.6,61.73h0A30.13,30.13,0,0,1,1.47,31.6h0A30.13,30.13,0,0,1,31.6,1.47Z"/><path class="cls-2" d="M31.6,7.5h0A24.11,24.11,0,0,1,55.71,31.6h0A24.12,24.12,0,0,1,31.6,55.71h0A24.11,24.11,0,0,1,7.5,31.6h0A24.1,24.1,0,0,1,31.6,7.5Z"/></g><path id="Rectangle_2" data-name="Rectangle 2" class="cls-4" d="M134,1.47h0A30.13,30.13,0,0,1,164.11,31.6V356.19A30.12,30.12,0,0,1,134,386.31h0a30.12,30.12,0,0,1-30.13-30.12V31.6A30.13,30.13,0,0,1,134,1.47Z"/></g></g></svg>